<svg width="23" height="23" viewBox="0 0 23 23" fill="none" xmlns="http://www.w3.org/2000/svg">
<path d="M8.13882 16.5146L4.25113 12.6269C4.04165 12.4175 3.75753 12.2998 3.46127 12.2998C3.16502 12.2998 2.88089 12.4175 2.67141 12.6269C2.46193 12.8364 2.34424 13.1205 2.34424 13.4168C2.34424 13.5635 2.37313 13.7087 2.42927 13.8443C2.4854 13.9798 2.56768 14.1029 2.67141 14.2067L7.35456 18.8898C7.7915 19.3268 8.49734 19.3268 8.93428 18.8898L20.7878 7.03629C20.9973 6.8268 21.115 6.54268 21.115 6.24643C21.115 5.95017 20.9973 5.66605 20.7878 5.45657C20.5783 5.24708 20.2942 5.12939 19.9979 5.12939C19.7017 5.12939 19.4176 5.24708 19.2081 5.45657L8.13882 16.5146Z" fill="#01A437"/>
</svg>
