<svg width="18" height="18" viewBox="0 0 18 18" fill="none" xmlns="http://www.w3.org/2000/svg">
<path d="M15.9841 5.95547C15.8798 5.85047 15.7556 5.76721 15.6189 5.71048C15.4822 5.65376 15.3355 5.62471 15.1875 5.625H12.9375V5.0625C12.9375 4.01821 12.5227 3.01669 11.7842 2.27827C11.0458 1.53984 10.0443 1.125 9 1.125C7.95571 1.125 6.95419 1.53984 6.21577 2.27827C5.47734 3.01669 5.0625 4.01821 5.0625 5.0625V5.625H2.8125C2.51413 5.625 2.22798 5.74353 2.017 5.9545C1.80603 6.16548 1.6875 6.45163 1.6875 6.75V14.3438C1.6875 15.7148 2.84766 16.875 4.21875 16.875H13.7812C14.4445 16.8752 15.0814 16.6159 15.5559 16.1525C15.7947 15.9247 15.9849 15.6509 16.1149 15.3476C16.2449 15.0442 16.3122 14.7177 16.3125 14.3877V6.75C16.3129 6.60244 16.2842 6.45626 16.2278 6.31989C16.1714 6.18352 16.0886 6.05966 15.9841 5.95547ZM11.25 11.8125H9.5625V13.5C9.5625 13.6492 9.50324 13.7923 9.39775 13.8977C9.29226 14.0032 9.14918 14.0625 9 14.0625C8.85082 14.0625 8.70774 14.0032 8.60225 13.8977C8.49676 13.7923 8.4375 13.6492 8.4375 13.5V11.8125H6.75C6.60082 11.8125 6.45774 11.7532 6.35225 11.6477C6.24676 11.5423 6.1875 11.3992 6.1875 11.25C6.1875 11.1008 6.24676 10.9577 6.35225 10.8523C6.45774 10.7468 6.60082 10.6875 6.75 10.6875H8.4375V9C8.4375 8.85082 8.49676 8.70774 8.60225 8.60225C8.70774 8.49676 8.85082 8.4375 9 8.4375C9.14918 8.4375 9.29226 8.49676 9.39775 8.60225C9.50324 8.70774 9.5625 8.85082 9.5625 9V10.6875H11.25C11.3992 10.6875 11.5423 10.7468 11.6477 10.8523C11.7532 10.9577 11.8125 11.1008 11.8125 11.25C11.8125 11.3992 11.7532 11.5423 11.6477 11.6477C11.5423 11.7532 11.3992 11.8125 11.25 11.8125ZM11.8125 5.625H6.1875V5.0625C6.1875 4.31658 6.48382 3.60121 7.01126 3.07376C7.53871 2.54632 8.25408 2.25 9 2.25C9.74592 2.25 10.4613 2.54632 10.9887 3.07376C11.5162 3.60121 11.8125 4.31658 11.8125 5.0625V5.625Z" fill="white"/>
</svg>
