<svg width="72" height="60" viewBox="0 0 72 60" fill="none" xmlns="http://www.w3.org/2000/svg">
<path d="M72 60C61.8947 60 54.3158 60 34.1053 60C20.8421 60 6.31579 60 0 60C0 22.6549 15.5883 0.0841675 35.4706 0.0841675C55.3528 0.0841675 72 22.6549 72 60Z" fill="white"/>
<path d="M36.5 26.4846C36.2596 26.4846 36.0291 26.5799 35.8592 26.7496C35.6892 26.9193 35.5938 27.1495 35.5938 27.3895V31.0095C35.5938 31.2495 35.6892 31.4797 35.8592 31.6494C36.0291 31.8191 36.2596 31.9144 36.5 31.9144C36.7404 31.9144 36.9709 31.8191 37.1408 31.6494C37.3108 31.4797 37.4062 31.2495 37.4062 31.0095V27.3895C37.4062 27.1495 37.3108 26.9193 37.1408 26.7496C36.9709 26.5799 36.7404 26.4846 36.5 26.4846ZM29.25 40.9642C29.25 42.8843 30.0138 44.7258 31.3735 46.0836C32.7331 47.4413 34.5772 48.2041 36.5 48.2041C38.4228 48.2041 40.2669 47.4413 41.6265 46.0836C42.9862 44.7258 43.75 42.8843 43.75 40.9642V30.1045C43.75 28.1844 42.9862 26.3429 41.6265 24.9851C40.2669 23.6274 38.4228 22.8646 36.5 22.8646C34.5772 22.8646 32.7331 23.6274 31.3735 24.9851C30.0138 26.3429 29.25 28.1844 29.25 30.1045V40.9642ZM36.5 21.0547C38.9035 21.0547 41.2086 22.0081 42.9082 23.7053C44.6077 25.4025 45.5625 27.7043 45.5625 30.1045V40.9642C45.5625 43.3644 44.6077 45.6662 42.9082 47.3634C41.2086 49.0606 38.9035 50.014 36.5 50.014C34.0965 50.014 31.7914 49.0606 30.0918 47.3634C28.3923 45.6662 27.4375 43.3644 27.4375 40.9642V30.1045C27.4375 27.7043 28.3923 25.4025 30.0918 23.7053C31.7914 22.0081 34.0965 21.0547 36.5 21.0547V21.0547Z" fill="#212922"/>
</svg>
