<svg width="30" height="31" viewBox="0 0 30 31" fill="none" xmlns="http://www.w3.org/2000/svg">
<path d="M21.4408 19.3679H20.0858L19.6055 18.9048C21.3445 16.8877 22.3003 14.3125 22.2985 11.6492C22.2985 9.44412 21.6446 7.28853 20.4195 5.45505C19.1944 3.62157 17.4531 2.19255 15.4159 1.34869C13.3786 0.504831 11.1369 0.284039 8.97412 0.714234C6.81139 1.14443 4.82478 2.20629 3.26554 3.76554C1.70629 5.32478 0.64443 7.31139 0.214234 9.47412C-0.215961 11.6369 0.00483079 13.8786 0.848689 15.9159C1.69255 17.9531 3.12157 19.6944 4.95505 20.9195C6.78853 22.1446 8.94412 22.7985 11.1492 22.7985C13.9108 22.7985 16.4494 21.7865 18.4048 20.1055L18.8679 20.5858V21.9408L27.4443 30.5L30 27.9443L21.4408 19.3679ZM11.1492 19.3679C6.87822 19.3679 3.43054 15.9202 3.43054 11.6492C3.43054 7.37822 6.87822 3.93054 11.1492 3.93054C15.4202 3.93054 18.8679 7.37822 18.8679 11.6492C18.8679 15.9202 15.4202 19.3679 11.1492 19.3679Z" fill="#01A437"/>
</svg>
