<svg width="46" height="46" viewBox="0 0 46 46" fill="none" xmlns="http://www.w3.org/2000/svg">
<path d="M19.875 7.375C19.875 5.55164 19.1507 3.80295 17.8614 2.51364C16.572 1.22433 14.8234 0.5 13 0.5C11.1766 0.5 9.42795 1.22433 8.13864 2.51364C6.84933 3.80295 6.125 5.55164 6.125 7.375C6.125 9.19836 6.84933 10.947 8.13864 12.2364C9.42795 13.5257 11.1766 14.25 13 14.25C14.8234 14.25 16.572 13.5257 17.8614 12.2364C19.1507 10.947 19.875 9.19836 19.875 7.375ZM8.625 7.375C8.625 6.80047 8.73816 6.23156 8.95803 5.70076C9.17789 5.16996 9.50015 4.68766 9.90641 4.28141C10.3127 3.87515 10.795 3.55289 11.3258 3.33303C11.8566 3.11316 12.4255 3 13 3C13.5745 3 14.1434 3.11316 14.6742 3.33303C15.205 3.55289 15.6873 3.87515 16.0936 4.28141C16.4998 4.68766 16.8221 5.16996 17.042 5.70076C17.2618 6.23156 17.375 6.80047 17.375 7.375C17.375 8.53532 16.9141 9.64812 16.0936 10.4686C15.2731 11.2891 14.1603 11.75 13 11.75C11.8397 11.75 10.7269 11.2891 9.90641 10.4686C9.08594 9.64812 8.625 8.53532 8.625 7.375ZM4.25 16.75H14.7075C14.2975 17.525 13.9925 18.365 13.8125 19.25H4.25C3.91848 19.25 3.60054 19.3817 3.36612 19.6161C3.1317 19.8505 3 20.1685 3 20.5V21.75C3 24.9 5.7475 28.285 10.74 29.075C9.935 29.625 9.265 30.3575 8.7875 31.21C3.5125 29.7825 0.5 25.7175 0.5 21.75V20.5C0.5 19.5054 0.895088 18.5516 1.59835 17.8483C2.30161 17.1451 3.25544 16.75 4.25 16.75ZM17.6975 16.75C18.9575 15.225 20.865 14.25 23 14.25C24.4972 14.2474 25.9541 14.7346 27.1485 15.6374C28.3428 16.5402 29.2091 17.8089 29.615 19.25C29.9768 20.5362 29.9564 21.9 29.5563 23.1748C29.1562 24.4497 28.3936 25.5805 27.3617 26.4293C26.3297 27.2781 25.073 27.8081 23.7449 27.9547C22.4168 28.1014 21.0748 27.8582 19.8825 27.255C18.9645 26.7878 18.1633 26.1203 17.5379 25.3018C16.9126 24.4834 16.4792 23.5349 16.2696 22.5264C16.0601 21.5179 16.0799 20.4752 16.3275 19.4754C16.575 18.4756 17.0416 17.5442 17.6975 16.75ZM19.0475 19.25C18.8013 19.7694 18.6598 20.3322 18.631 20.9062C18.6023 21.4803 18.6869 22.0544 18.8801 22.5958C19.0732 23.1371 19.3711 23.6352 19.7567 24.0614C20.1423 24.4877 20.6081 24.8338 21.1275 25.08C21.6469 25.3262 22.2097 25.4677 22.7837 25.4965C23.3578 25.5252 23.9319 25.4406 24.4733 25.2474C25.0146 25.0543 25.5127 24.7564 25.9389 24.3708C26.3652 23.9852 26.7113 23.5194 26.9575 23C27.4548 21.9507 27.5149 20.7469 27.1246 19.6533C26.7343 18.5598 25.9255 17.666 24.8762 17.1688C23.827 16.6715 22.6232 16.6114 21.5296 17.0017C20.436 17.392 19.5448 18.2007 19.0475 19.25ZM37.2125 31.21C36.7363 30.357 36.0678 29.6269 35.26 29.0775C40.25 28.285 43 24.8975 43 21.75V20.5C43 20.1685 42.8683 19.8505 42.6339 19.6161C42.3995 19.3817 42.0815 19.25 41.75 19.25H32.1875C32.0109 18.3783 31.7103 17.5365 31.295 16.75H41.75C42.7446 16.75 43.6984 17.1451 44.4016 17.8483C45.1049 18.5516 45.5 19.5054 45.5 20.5V21.75C45.5 25.7175 42.485 29.78 37.2125 31.21ZM34.2175 31.4275C33.5352 30.8285 32.6579 30.4988 31.75 30.5H14.25C13.7572 30.4987 13.2689 30.5948 12.8134 30.7828C12.3578 30.9708 11.9439 31.2469 11.5954 31.5954C11.2469 31.9439 10.9708 32.3578 10.7828 32.8134C10.5948 33.2689 10.4987 33.7572 10.5 34.25V35.5C10.5 40.4275 15.15 45.5 23 45.5C30.85 45.5 35.5 40.4275 35.5 35.5V34.25C35.5 33.125 35.005 32.115 34.2175 31.425V31.4275ZM13 34.25C13 33.9185 13.1317 33.6005 13.3661 33.3661C13.6005 33.1317 13.9185 33 14.25 33H31.75C32.0815 33 32.3995 33.1317 32.6339 33.3661C32.8683 33.6005 33 33.9185 33 34.25V35.5C33 39.095 29.42 43 23 43C16.58 43 13 39.095 13 35.5V34.25ZM33 0.5C34.8234 0.5 36.572 1.22433 37.8614 2.51364C39.1507 3.80295 39.875 5.55164 39.875 7.375C39.875 9.19836 39.1507 10.947 37.8614 12.2364C36.572 13.5257 34.8234 14.25 33 14.25C31.1766 14.25 29.428 13.5257 28.1386 12.2364C26.8493 10.947 26.125 9.19836 26.125 7.375C26.125 5.55164 26.8493 3.80295 28.1386 2.51364C29.428 1.22433 31.1766 0.5 33 0.5ZM33 3C31.8397 3 30.7269 3.46094 29.9064 4.28141C29.0859 5.10188 28.625 6.21468 28.625 7.375C28.625 8.53532 29.0859 9.64812 29.9064 10.4686C30.7269 11.2891 31.8397 11.75 33 11.75C34.1603 11.75 35.2731 11.2891 36.0936 10.4686C36.9141 9.64812 37.375 8.53532 37.375 7.375C37.375 6.21468 36.9141 5.10188 36.0936 4.28141C35.2731 3.46094 34.1603 3 33 3Z" fill="#01A437"/>
</svg>
