<svg width="28" height="27" viewBox="0 0 28 27" fill="none" xmlns="http://www.w3.org/2000/svg">
<path fill-rule="evenodd" clip-rule="evenodd" d="M14.0013 0C10.3802 0 9.92573 0.0158335 8.5035 0.0805564C7.08404 0.145557 6.11514 0.370282 5.26735 0.700007C4.3904 1.04057 3.6465 1.49613 2.90538 2.23752C2.16371 2.97864 1.70815 3.72254 1.36648 4.59921C1.03592 5.44728 0.810916 6.41646 0.747027 7.83536C0.683415 9.2576 0.666748 9.71232 0.666748 13.3335C0.666748 16.9546 0.682859 17.4077 0.747304 18.8299C0.812583 20.2494 1.03731 21.2183 1.36676 22.0661C1.70759 22.943 2.16315 23.6869 2.90455 24.428C3.64539 25.1697 4.38929 25.6264 5.26568 25.9669C6.11403 26.2967 7.0832 26.5214 8.50238 26.5864C9.92462 26.6511 10.3788 26.6669 13.9997 26.6669C17.6211 26.6669 18.0742 26.6511 19.4964 26.5864C20.9158 26.5214 21.8859 26.2967 22.7342 25.9669C23.6109 25.6264 24.3537 25.1697 25.0945 24.428C25.8362 23.6869 26.2917 22.943 26.6334 22.0663C26.9612 21.2183 27.1862 20.2491 27.2529 18.8302C27.3167 17.408 27.3334 16.9546 27.3334 13.3335C27.3334 9.71232 27.3167 9.25787 27.2529 7.83564C27.1862 6.41618 26.9612 5.44728 26.6334 4.59949C26.2917 3.72254 25.8362 2.97864 25.0945 2.23752C24.3528 1.49585 23.6112 1.04029 22.7334 0.700007C21.8834 0.370282 20.9139 0.145557 19.4944 0.0805564C18.0722 0.0158335 17.6194 0 13.9972 0H14.0013ZM12.8051 2.40277C13.1602 2.40221 13.5563 2.40277 14.0013 2.40277C17.5613 2.40277 17.9833 2.41554 19.3891 2.47943C20.6891 2.53888 21.3947 2.7561 21.8647 2.9386C22.4869 3.18027 22.9305 3.46917 23.3969 3.93584C23.8636 4.40251 24.1525 4.84696 24.3947 5.46919C24.5772 5.93864 24.7947 6.6442 24.8539 7.94421C24.9178 9.34978 24.9317 9.77201 24.9317 13.3304C24.9317 16.8887 24.9178 17.311 24.8539 18.7165C24.7944 20.0166 24.5772 20.7221 24.3947 21.1916C24.153 21.8138 23.8636 22.2569 23.3969 22.7233C22.9303 23.1899 22.4872 23.4788 21.8647 23.7205C21.3952 23.9038 20.6891 24.1205 19.3891 24.1799C17.9835 24.2438 17.5613 24.2577 14.0013 24.2577C10.441 24.2577 10.019 24.2438 8.61344 24.1799C7.31343 24.1199 6.60786 23.9027 6.13758 23.7202C5.51535 23.4785 5.0709 23.1896 4.60423 22.723C4.13756 22.2563 3.84867 21.813 3.60644 21.1905C3.42394 20.721 3.20644 20.0154 3.14727 18.7154C3.08338 17.3099 3.0706 16.8876 3.0706 13.327C3.0706 9.76645 3.08338 9.34645 3.14727 7.94088C3.20672 6.64086 3.42394 5.9353 3.60644 5.4653C3.84811 4.84307 4.13756 4.39862 4.60423 3.93195C5.0709 3.46528 5.51535 3.17638 6.13758 2.93416C6.60759 2.75082 7.31343 2.53416 8.61344 2.47443C9.84345 2.41888 10.3201 2.40221 12.8051 2.39943V2.40277ZM21.1186 4.61668C20.2352 4.61668 19.5186 5.33252 19.5186 6.21614C19.5186 7.09949 20.2352 7.81616 21.1186 7.81616C22.0019 7.81616 22.7186 7.09949 22.7186 6.21614C22.7186 5.3328 22.0019 4.61668 21.1186 4.61668ZM14.0014 6.48614C10.2199 6.48614 7.15406 9.55201 7.15406 13.3334C7.15406 17.1149 10.2199 20.1793 14.0014 20.1793C17.7828 20.1793 20.8475 17.1149 20.8475 13.3334C20.8475 9.55201 17.7828 6.48614 14.0014 6.48614ZM14.0013 8.88894C16.4558 8.88894 18.4458 10.8787 18.4458 13.3334C18.4458 15.7879 16.4558 17.7779 14.0013 17.7779C11.5466 17.7779 9.55681 15.7879 9.55681 13.3334C9.55681 10.8787 11.5466 8.88894 14.0013 8.88894Z" fill="#F8F8F8"/>
</svg>
