<svg width="24" height="27" viewBox="0 0 24 27" fill="none" xmlns="http://www.w3.org/2000/svg">
<path d="M23.3565 11.3633C23.3565 14.2765 22.3319 16.9428 20.4679 18.8809C18.604 20.8189 16.3573 21.7324 13.9749 21.7324C12.0616 21.7324 10.6667 21.2139 9.66685 20.5844L8.5065 25.522C8.43111 25.8485 8.24724 26.1398 7.98492 26.3483C7.7226 26.5568 7.39733 26.6702 7.06224 26.67C6.95012 26.6699 6.83836 26.6575 6.72895 26.633C6.53923 26.5893 6.35997 26.5087 6.20143 26.3957C6.04289 26.2827 5.90818 26.1396 5.805 25.9745C5.70182 25.8094 5.63219 25.6256 5.6001 25.4336C5.56801 25.2415 5.57409 25.0451 5.61798 24.8554L9.56809 8.06744C9.61186 7.87778 9.69256 7.69859 9.80558 7.54012C9.91859 7.38164 10.0617 7.24698 10.2268 7.14382C10.3918 7.04065 10.5756 6.97101 10.7676 6.93887C10.9596 6.90672 11.156 6.9127 11.3456 6.95647C11.5353 7.00024 11.7145 7.08094 11.873 7.19396C12.0314 7.30697 12.1661 7.4501 12.2693 7.61516C12.3724 7.78022 12.4421 7.96398 12.4742 8.15596C12.5064 8.34793 12.5004 8.54436 12.4566 8.73402L10.4198 17.3749C10.8519 17.8933 11.9011 18.7698 13.9749 18.7698C17.135 18.7698 20.3939 16.0047 20.3939 11.3633C20.3927 10.0525 20.0845 8.76024 19.4941 7.58996C18.9037 6.41968 18.0474 5.40393 16.9938 4.62409C15.9402 3.84425 14.7187 3.32198 13.427 3.09913C12.1353 2.87628 10.8093 2.95903 9.55536 3.34076C8.30139 3.72249 7.15425 4.39259 6.20582 5.29738C5.25739 6.20217 4.53404 7.3165 4.0937 8.55111C3.65337 9.78573 3.50829 11.1063 3.67009 12.4071C3.8319 13.7078 4.29608 14.9526 5.02547 16.0417C5.15076 16.2023 5.2416 16.387 5.29229 16.5843C5.34299 16.7816 5.35245 16.9872 5.3201 17.1883C5.28774 17.3894 5.21426 17.5816 5.10425 17.753C4.99424 17.9245 4.85005 18.0713 4.68071 18.1845C4.51137 18.2977 4.3205 18.3747 4.12004 18.4108C3.91958 18.4469 3.71384 18.4413 3.51566 18.3942C3.31748 18.3472 3.13112 18.2598 2.96824 18.1375C2.80535 18.0153 2.66944 17.8607 2.56899 17.6835C1.58038 16.2099 0.950847 14.5251 0.730892 12.7642C0.510936 11.0034 0.706676 9.21552 1.30241 7.54399C1.89815 5.87245 2.8773 4.36378 4.16134 3.13897C5.44538 1.91416 6.99858 1.00729 8.69637 0.4911C10.3942 -0.0250916 12.1893 -0.136242 13.9378 0.166564C15.6863 0.469369 17.3395 1.1777 18.7648 2.23476C20.1901 3.29181 21.3479 4.66817 22.1453 6.25344C22.9427 7.83872 23.3575 9.58879 23.3565 11.3633Z" fill="#F8F8F8"/>
</svg>
