<svg width="28" height="27" viewBox="0 0 28 27" fill="none" xmlns="http://www.w3.org/2000/svg">
<path fill-rule="evenodd" clip-rule="evenodd" d="M20.0812 15.982C19.75 15.8165 18.1265 15.0186 17.8242 14.9075C17.522 14.7975 17.3019 14.743 17.0808 15.0742C16.8608 15.4031 16.2285 16.1476 16.0362 16.3676C15.8429 16.5888 15.6506 16.6155 15.3206 16.451C14.9905 16.2843 13.926 15.9365 12.6647 14.8119C11.6835 13.9362 11.02 12.855 10.8278 12.5238C10.6356 12.1938 10.8067 12.0149 10.9723 11.8504C11.1212 11.7026 11.3023 11.4648 11.4679 11.2726C11.6335 11.0792 11.6879 10.9414 11.7979 10.7203C11.909 10.5002 11.8535 10.308 11.7701 10.1424C11.6879 9.97685 11.0278 8.35109 10.7522 7.6899C10.4844 7.04648 10.2122 7.13427 10.0099 7.12316C9.81656 7.11427 9.59654 7.11205 9.37651 7.11205C9.15648 7.11205 8.79866 7.19428 8.4964 7.52543C8.19303 7.85547 7.3407 8.65446 7.3407 10.2802C7.3407 11.9049 8.52307 13.4751 8.68864 13.6962C8.85422 13.9162 11.0167 17.2522 14.3293 18.6824C15.1183 19.0224 15.7329 19.2258 16.2118 19.3769C17.003 19.6292 17.7231 19.5936 18.2921 19.508C18.9255 19.4136 20.2456 18.7091 20.5212 17.9378C20.7957 17.1666 20.7957 16.5054 20.7135 16.3676C20.6312 16.2299 20.4112 16.1476 20.0801 15.982H20.0812ZM14.056 24.2086H14.0515C12.084 24.209 10.1526 23.6801 8.45973 22.6773L8.05968 22.4395L3.90138 23.5308L5.01152 19.4769L4.75037 19.0613C3.65039 17.3104 3.06827 15.2839 3.07127 13.2161C3.0735 7.15983 8.00078 2.23255 14.0604 2.23255C16.9941 2.23255 19.7522 3.37713 21.8258 5.45295C22.8486 6.4715 23.6593 7.68275 24.2109 9.01661C24.7625 10.3505 25.0442 11.7805 25.0396 13.2239C25.0374 19.2802 20.1101 24.2086 14.056 24.2086ZM23.4038 3.87609C22.1794 2.64362 20.7226 1.66641 19.1178 1.00106C17.513 0.335714 15.7921 -0.00452973 14.0549 4.55363e-05C6.77174 4.55363e-05 0.842107 5.92856 0.839885 13.215C0.83651 15.5339 1.44482 17.8127 2.60344 19.8214L0.72876 26.67L7.73408 24.832C9.67196 25.8879 11.8436 26.4411 14.0504 26.4411H14.056C21.3391 26.4411 27.2687 20.5126 27.271 13.225C27.2763 11.4885 26.9373 9.76804 26.2735 8.16333C25.6098 6.55861 24.6344 5.10143 23.4038 3.87609Z" fill="#F8F8F8"/>
</svg>
