<svg width="28" height="20" viewBox="0 0 28 20" fill="none" xmlns="http://www.w3.org/2000/svg">
<path fill-rule="evenodd" clip-rule="evenodd" d="M24.4184 0.572218C25.5658 0.887076 26.4695 1.8148 26.7761 2.99294C27.3334 5.12816 27.3334 9.58333 27.3334 9.58333C27.3334 9.58333 27.3334 14.0383 26.7761 16.1737C26.4695 17.3519 25.5658 18.2796 24.4184 18.5946C22.339 19.1667 14.0001 19.1667 14.0001 19.1667C14.0001 19.1667 5.66114 19.1667 3.5816 18.5946C2.43417 18.2796 1.53054 17.3519 1.22387 16.1737C0.666748 14.0383 0.666748 9.58333 0.666748 9.58333C0.666748 9.58333 0.666748 5.12816 1.22387 2.99294C1.53054 1.8148 2.43417 0.887076 3.5816 0.572218C5.66114 0 14.0001 0 14.0001 0C14.0001 0 22.339 0 24.4184 0.572218ZM11.5001 5.83324V14.1666L18.1668 10.0001L11.5001 5.83324Z" fill="#F8F8F8"/>
</svg>
