<svg width="46" height="43" viewBox="0 0 46 43" fill="none" xmlns="http://www.w3.org/2000/svg">
<path d="M5.62521 18.0007C4.65017 18.0007 3.84389 17.6819 3.20637 17.0444C2.56884 16.4069 2.25008 15.6006 2.25008 14.6255C2.25008 13.6505 2.56884 12.8442 3.20637 12.2067C3.84389 11.5692 4.65017 11.2504 5.62521 11.2504C6.60024 11.2504 7.40652 11.5692 8.04404 12.2067C8.68157 12.8442 9.00033 13.6505 9.00033 14.6255C9.00033 15.6006 8.68157 16.4069 8.04404 17.0444C7.40652 17.6819 6.60024 18.0007 5.62521 18.0007ZM2.25008 42.7516V31.5012H0V20.2507H11.2504V31.5012H9.00033V38.2514H27.001V27.001H23.0633C20.4007 27.001 18.1417 26.0725 16.2861 24.2154C14.429 22.3598 13.5005 20.1007 13.5005 17.4381C13.5005 15.4506 14.0353 13.6783 15.1048 12.1212C16.1728 10.5656 17.5506 9.41284 19.2382 8.66282C19.6507 6.22523 20.7848 4.17165 22.6403 2.50209C24.4974 0.834031 26.701 0 29.2511 0C31.8012 0 34.0047 0.834031 35.8618 2.50209C37.7174 4.17165 38.8514 6.22523 39.2639 8.66282C40.9515 9.41284 42.3301 10.5656 43.3996 12.1212C44.4676 13.6783 45.0016 15.4506 45.0016 17.4381C45.0016 20.1007 44.0739 22.3598 42.2183 24.2154C40.3612 26.0725 38.1014 27.001 35.4388 27.001H31.5012V38.2514H42.7516V42.7516H2.25008ZM23.0633 22.5008H35.4388C36.8638 22.5008 38.0639 22.0133 39.0389 21.0383C40.014 20.0632 40.5015 18.8632 40.5015 17.4381C40.5015 16.4256 40.23 15.5068 39.687 14.6818C39.1424 13.8568 38.4014 13.238 37.4639 12.8255L35.1013 11.8129L34.7638 9.33784C34.5388 7.95029 33.911 6.79675 32.8805 5.87722C31.8484 4.95918 30.6386 4.50016 29.2511 4.50016C27.8635 4.50016 26.6545 4.95918 25.6239 5.87722C24.5919 6.79675 23.9634 7.95029 23.7384 9.33784L23.4009 11.8129L21.0383 12.8255C20.1007 13.238 19.3605 13.8568 18.8174 14.6818C18.2729 15.5068 18.0007 16.4256 18.0007 17.4381C18.0007 18.8632 18.4882 20.0632 19.4632 21.0383C20.4382 22.0133 21.6383 22.5008 23.0633 22.5008Z" fill="#01A437"/>
</svg>
